<svg xmlns="http://www.w3.org/2000/svg" xmlns:xlink="http://www.w3.org/1999/xlink" width="1080" zoomAndPan="magnify" viewBox="0 0 810 809.999993" height="1080" preserveAspectRatio="xMidYMid meet" version="1.0"><defs><clipPath id="9bb27f65cb"><path d="M 1.832031 92 L 805 92 L 805 729 L 1.832031 729 Z M 1.832031 92 " clip-rule="nonzero"/></clipPath></defs><g clip-path="url(#9bb27f65cb)"><path fill="#000000" d="M 778.089844 300.144531 C 774.222656 189.621094 675.296875 107.289062 585.277344 94.253906 C 497.71875 81.570312 425.855469 128.261719 390.003906 219.742188 C 354.144531 128.257812 282.246094 81.582031 194.726562 94.253906 C 104.285156 107.351562 4.8125 190.394531 1.832031 301.890625 C 1.832031 385.277344 29.53125 454.011719 86.3125 511.90625 C 79.9375 523.15625 71.832031 545.457031 71.832031 575.925781 C 71.832031 628.234375 100.25 684.117188 180.007812 684.117188 L 338.898438 684.117188 C 339.472656 684.140625 343.472656 684.339844 350.027344 684.554688 C 364.410156 695.972656 376.59375 713.863281 384.734375 725.878906 C 385.925781 727.621094 387.890625 728.664062 390.003906 728.664062 C 392.117188 728.664062 394.089844 727.617188 395.273438 725.871094 C 405.160156 711.265625 416.851562 694.917969 430.664062 683.996094 C 490.789062 681.011719 525.203125 672.210938 535.746094 657.074219 C 538.246094 653.492188 539.378906 649.507812 539.316406 645.351562 C 566.855469 635.5 572.207031 619.617188 572.871094 610.851562 C 595.328125 604.367188 599.617188 592.402344 599.742188 584.542969 C 635.574219 562.453125 685.625 528.023438 722.226562 478.761719 C 766.183594 454.9375 794.503906 422.964844 801.960938 388.601562 C 808.273438 359.554688 800.183594 329.800781 778.089844 300.144531 Z M 226.804688 430.910156 C 227.804688 424.589844 233.792969 418.460938 242.742188 418.097656 C 244.605469 418.722656 246.570312 419.25 248.917969 419.65625 C 271.394531 421.921875 315.800781 425.734375 360.667969 425.734375 C 365.6875 425.734375 370.710938 425.734375 375.730469 425.601562 C 379.242188 425.503906 382.015625 422.578125 381.929688 419.070312 C 381.832031 415.550781 378.753906 412.972656 375.398438 412.871094 C 370.542969 413.007812 365.6875 413.007812 360.828125 413.007812 C 360.777344 413.007812 360.71875 413.007812 360.675781 413.007812 C 316.367188 413.007812 272.445312 409.238281 250.6875 407.054688 C 248.96875 406.75 247.328125 406.296875 245.78125 405.714844 C 245.730469 405.695312 245.675781 405.707031 245.621094 405.6875 C 245.617188 405.6875 245.609375 405.679688 245.605469 405.675781 C 237.558594 402.804688 233.441406 397.160156 234.582031 390.585938 C 235.601562 384.699219 241.085938 378.765625 251.679688 378.765625 L 394.03125 378.765625 C 395.984375 378.765625 397.832031 377.871094 399.03125 376.335938 C 400.234375 374.800781 400.675781 372.796875 400.21875 370.902344 C 396.011719 353.535156 375.378906 345.367188 357.175781 338.164062 C 351.34375 335.859375 345.839844 333.675781 341.246094 331.316406 C 332.414062 327.179688 327.824219 321.679688 328.953125 316.601562 C 329.933594 312.207031 334.820312 308.753906 340.082031 308.753906 C 340.382812 308.753906 340.65625 308.753906 340.949219 308.753906 C 443.640625 308.753906 484.457031 347.671875 491.835938 355.78125 L 491.835938 502.230469 C 486.863281 504.777344 481 506.425781 475.40625 507.492188 C 484.519531 500.167969 487.738281 489.464844 483.605469 480.222656 C 478.785156 469.460938 466.125 464.085938 451.703125 466.503906 C 427.71875 469.308594 397.660156 481.769531 376.1875 491.976562 C 324.34375 492.207031 275.785156 489.71875 275.542969 489.710938 C 271.355469 489.332031 267.894531 488.847656 264.9375 488.230469 C 257.835938 486.761719 248.792969 483.640625 246.101562 477.214844 C 244.324219 472.96875 245.546875 468.183594 246.863281 464.90625 C 248.652344 465.304688 250.546875 465.675781 252.621094 466.007812 C 253.164062 466.050781 294.457031 469.371094 338.007812 469.371094 C 351.058594 469.371094 364.3125 469.074219 376.734375 468.296875 C 380.242188 468.082031 382.910156 465.058594 382.691406 461.546875 C 382.476562 458.039062 379.546875 455.441406 375.941406 455.589844 C 323.003906 458.886719 254.390625 453.367188 254.164062 453.367188 C 251.007812 452.859375 248.042969 452.171875 245.34375 451.335938 C 232.347656 447.347656 225.425781 439.703125 226.804688 430.910156 Z M 332.730469 671.390625 L 180.007812 671.390625 C 120.238281 671.390625 84.558594 635.707031 84.558594 575.925781 C 84.558594 549.078125 91.367188 529.394531 96.621094 519.523438 C 106.703125 523.84375 119.710938 524.9375 121.714844 525.078125 C 139.589844 525.453125 208.003906 525.351562 272.539062 525.210938 C 299.417969 525.160156 322.128906 525.078125 332.726562 525.046875 L 332.726562 671.390625 Z M 337.351562 512.292969 C 330.792969 512.316406 305.546875 512.414062 274.308594 512.476562 C 269.085938 509.414062 268.035156 505.132812 268.316406 501.714844 C 270.242188 501.976562 272.316406 502.210938 274.628906 502.421875 C 275.042969 502.441406 309.359375 504.179688 351.117188 504.628906 C 344.484375 508.1875 339.65625 510.949219 337.351562 512.292969 Z M 564.792969 599.804688 C 563.9375 600.023438 563.078125 600.238281 561.878906 600.460938 C 561.308594 600.59375 503.789062 613.417969 440.753906 613.800781 C 437.234375 613.820312 434.40625 616.6875 434.425781 620.203125 C 434.445312 623.707031 437.289062 626.527344 440.789062 626.527344 C 440.804688 626.527344 440.816406 626.527344 440.828125 626.527344 C 494.289062 626.210938 543.816406 617.128906 559.324219 613.996094 C 557.210938 620.082031 550.578125 628.945312 530.503906 634.933594 C 526.695312 636.054688 522.679688 637.003906 518.671875 637.761719 L 440.082031 646.542969 C 436.589844 646.9375 434.082031 650.089844 434.464844 653.574219 C 434.832031 656.828125 437.582031 659.234375 440.785156 659.234375 C 441.019531 659.234375 441.253906 659.21875 441.496094 659.195312 L 520.535156 650.34375 C 522.300781 650.011719 523.941406 649.644531 525.597656 649.28125 C 525.492188 649.453125 525.429688 649.625 525.308594 649.796875 C 521.617188 655.089844 504.742188 667.792969 427.953125 671.394531 C 399.101562 672.730469 371.035156 672.414062 352.585938 671.898438 C 349.800781 671.816406 347.425781 671.734375 345.460938 671.65625 L 345.460938 522.316406 C 351.179688 519.039062 364.296875 511.71875 380.335938 504.089844 C 401.023438 494.175781 430.449219 481.808594 453.464844 479.105469 C 463.527344 477.429688 470.011719 481.078125 471.964844 485.421875 C 473.714844 489.335938 472.007812 493.882812 467.484375 497.515625 L 421.921875 532.90625 C 419.738281 534.605469 418.898438 537.511719 419.847656 540.109375 C 420.785156 542.699219 423.21875 544.585938 426.066406 544.292969 L 566.113281 539.074219 C 572.488281 538.914062 578.113281 543.820312 578.429688 549.960938 L 578.429688 550.980469 C 578.429688 554.472656 576.878906 557.78125 574.1875 560.117188 C 574.15625 560.144531 574.109375 560.152344 574.078125 560.175781 C 572.417969 561.539062 570.535156 562.382812 568.480469 562.695312 C 544.003906 566.488281 475.070312 574.003906 436.035156 574.265625 C 432.523438 574.292969 429.691406 577.15625 429.71875 580.675781 C 429.742188 584.175781 432.582031 586.996094 436.082031 586.996094 C 436.09375 586.996094 436.113281 586.996094 436.125 586.996094 C 475.765625 586.726562 545.648438 579.117188 570.425781 575.273438 C 573.613281 574.78125 576.683594 573.636719 579.449219 571.9375 C 581.957031 573.234375 585.984375 577.28125 586.863281 582.277344 C 588.765625 592.785156 573.984375 597.738281 564.792969 599.804688 Z M 789.527344 385.90625 C 782.792969 416.894531 756.320312 446.136719 714.972656 468.238281 C 655.488281 500.046875 573.507812 512.558594 504.546875 500.621094 L 504.546875 352.882812 C 533.8125 351.324219 662.195312 342.84375 769.398438 309.691406 C 788.121094 335.613281 794.882812 361.226562 789.527344 385.90625 Z M 789.527344 385.90625 " fill-opacity="1" fill-rule="nonzero"/></g></svg>