<svg xmlns="http://www.w3.org/2000/svg" xmlns:xlink="http://www.w3.org/1999/xlink" width="1080" zoomAndPan="magnify" viewBox="0 0 810 809.999993" height="1080" preserveAspectRatio="xMidYMid meet" version="1.0"><defs><clipPath id="d72e49eb98"><path d="M 14 68.011719 L 796 68.011719 L 796 741 L 14 741 Z M 14 68.011719 " clip-rule="nonzero"/></clipPath></defs><g clip-path="url(#d72e49eb98)"><path fill="#000000" d="M 405.03125 68.011719 C 344.757812 68.011719 295.558594 117.226562 295.558594 177.519531 C 295.558594 237.8125 344.757812 287.027344 405.03125 287.027344 C 465.304688 287.027344 514.5 237.8125 514.5 177.519531 C 514.5 117.226562 465.304688 68.011719 405.03125 68.011719 Z M 405.03125 99.300781 C 448.402344 99.300781 483.222656 134.136719 483.222656 177.519531 C 483.222656 220.90625 448.402344 255.738281 405.03125 255.738281 C 361.660156 255.738281 326.835938 220.90625 326.835938 177.519531 C 326.835938 134.136719 361.660156 99.300781 405.03125 99.300781 Z M 92.378906 240.09375 C 90.914062 240.085938 89.480469 240.273438 88.070312 240.664062 C 86.660156 241.058594 85.332031 241.636719 84.085938 242.398438 C 82.835938 243.164062 81.71875 244.085938 80.730469 245.164062 C 79.742188 246.242188 78.921875 247.433594 78.265625 248.742188 L 15.773438 373.800781 L 15.710938 373.894531 C 15.496094 374.332031 15.304688 374.78125 15.128906 375.238281 C 14.980469 375.640625 14.847656 376.046875 14.734375 376.460938 C 14.691406 376.570312 14.652344 376.683594 14.613281 376.796875 C 14.613281 376.828125 14.613281 376.855469 14.613281 376.886719 C 14.476562 377.371094 14.363281 377.859375 14.277344 378.355469 C 14.191406 378.832031 14.132812 379.308594 14.09375 379.789062 C 14.09375 379.820312 14.09375 379.851562 14.09375 379.882812 C 14.070312 380.21875 14.0625 380.554688 14.0625 380.890625 C 14.0625 380.921875 14.0625 380.949219 14.0625 380.980469 C 14.070312 381.800781 14.140625 382.617188 14.277344 383.425781 C 15.460938 416.972656 39.515625 445.734375 72.644531 452.355469 C 88.546875 455.539062 102.226562 465.546875 110.0625 479.765625 L 151.910156 555.691406 C 152.621094 556.976562 153.496094 558.136719 154.535156 559.175781 C 171.769531 576.414062 199.746094 577.472656 218.25 561.621094 L 279.921875 508.761719 L 279.890625 725.054688 C 279.882812 725.570312 279.902344 726.089844 279.945312 726.601562 C 279.988281 727.117188 280.058594 727.628906 280.152344 728.136719 C 280.246094 728.648438 280.367188 729.148438 280.511719 729.644531 C 280.65625 730.140625 280.824219 730.628906 281.015625 731.109375 C 281.207031 731.589844 281.425781 732.058594 281.664062 732.515625 C 281.902344 732.976562 282.164062 733.421875 282.449219 733.851562 C 282.730469 734.285156 283.035156 734.703125 283.359375 735.105469 C 283.683594 735.507812 284.027344 735.894531 284.390625 736.261719 C 284.753906 736.628906 285.132812 736.976562 285.53125 737.308594 C 285.929688 737.640625 286.34375 737.949219 286.769531 738.238281 C 287.199219 738.527344 287.640625 738.796875 288.09375 739.042969 C 288.550781 739.289062 289.015625 739.511719 289.492188 739.710938 C 289.96875 739.910156 290.453125 740.085938 290.949219 740.234375 C 291.441406 740.386719 291.941406 740.515625 292.449219 740.617188 C 292.957031 740.71875 293.46875 740.792969 293.980469 740.84375 C 294.496094 740.894531 295.011719 740.921875 295.527344 740.921875 C 296.046875 740.921875 296.5625 740.894531 297.074219 740.84375 C 297.589844 740.792969 298.101562 740.71875 298.605469 740.617188 C 299.113281 740.515625 299.613281 740.386719 300.109375 740.234375 C 300.601562 740.085938 301.085938 739.910156 301.566406 739.710938 C 302.042969 739.511719 302.507812 739.289062 302.960938 739.042969 C 303.417969 738.796875 303.859375 738.527344 304.285156 738.238281 C 304.714844 737.949219 305.128906 737.640625 305.523438 737.308594 C 305.921875 736.976562 306.304688 736.628906 306.664062 736.261719 C 307.027344 735.894531 307.371094 735.507812 307.695312 735.105469 C 308.023438 734.703125 308.324219 734.285156 308.609375 733.851562 C 308.890625 733.421875 309.152344 732.976562 309.394531 732.515625 C 309.632812 732.058594 309.847656 731.589844 310.039062 731.109375 C 310.234375 730.628906 310.402344 730.140625 310.546875 729.644531 C 310.691406 729.148438 310.808594 728.648438 310.90625 728.136719 C 311 727.628906 311.070312 727.117188 311.113281 726.601562 C 311.15625 726.089844 311.175781 725.570312 311.167969 725.054688 L 311.199219 476.832031 C 311.386719 475.484375 311.402344 474.132812 311.238281 472.78125 C 311.078125 471.429688 310.746094 470.121094 310.242188 468.859375 C 309.738281 467.59375 309.078125 466.414062 308.269531 465.320312 C 307.457031 464.226562 306.519531 463.257812 305.457031 462.410156 C 305.054688 462.082031 304.636719 461.777344 304.203125 461.492188 C 303.835938 461.253906 303.457031 461.027344 303.074219 460.820312 C 303 460.78125 302.929688 460.738281 302.859375 460.699219 C 302.738281 460.636719 302.617188 460.574219 302.492188 460.515625 C 302.402344 460.472656 302.308594 460.433594 302.21875 460.394531 C 301.835938 460.214844 301.449219 460.050781 301.058594 459.902344 C 300.320312 459.628906 299.566406 459.410156 298.796875 459.246094 C 298.027344 459.082031 297.25 458.980469 296.464844 458.933594 C 295.679688 458.890625 294.898438 458.902344 294.113281 458.976562 C 293.332031 459.050781 292.558594 459.183594 291.792969 459.371094 C 291.03125 459.5625 290.285156 459.808594 289.5625 460.109375 C 288.835938 460.410156 288.136719 460.765625 287.460938 461.175781 C 286.789062 461.582031 286.152344 462.039062 285.546875 462.542969 C 284.945312 463.046875 284.382812 463.59375 283.859375 464.179688 L 197.910156 537.878906 C 191.867188 543.054688 183.472656 542.617188 177.597656 537.480469 L 137.460938 464.671875 C 125.1875 442.40625 103.699219 426.664062 78.785156 421.679688 C 65.035156 418.929688 56.183594 408.695312 50.898438 396.535156 L 112.597656 396.535156 C 123.609375 396.535156 133.753906 402.277344 139.414062 411.71875 L 172.679688 467.144531 C 172.984375 467.652344 173.316406 468.144531 173.675781 468.613281 C 174.035156 469.082031 174.421875 469.53125 174.832031 469.957031 C 175.242188 470.382812 175.675781 470.785156 176.132812 471.164062 C 176.589844 471.539062 177.066406 471.890625 177.5625 472.214844 C 178.058594 472.535156 178.574219 472.832031 179.101562 473.097656 C 179.632812 473.359375 180.175781 473.59375 180.730469 473.796875 C 181.289062 474 181.851562 474.171875 182.429688 474.308594 C 183.003906 474.449219 183.585938 474.554688 184.175781 474.628906 C 184.761719 474.699219 185.351562 474.738281 185.945312 474.746094 C 186.535156 474.75 187.125 474.722656 187.714844 474.660156 C 188.304688 474.597656 188.886719 474.503906 189.464844 474.378906 C 190.042969 474.25 190.613281 474.089844 191.175781 473.898438 C 191.734375 473.703125 192.28125 473.480469 192.816406 473.226562 C 193.351562 472.972656 193.871094 472.6875 194.371094 472.375 C 194.875 472.058594 195.355469 471.71875 195.820312 471.351562 C 196.285156 470.980469 196.726562 470.589844 197.144531 470.171875 L 308.507812 358.769531 C 308.519531 358.769531 308.53125 358.769531 308.539062 358.769531 C 314.394531 352.902344 322.3125 349.601562 330.625 349.601562 L 477.574219 349.601562 C 486.605469 349.601562 495.164062 353.480469 501.09375 360.265625 L 596.574219 469.40625 C 596.949219 469.835938 597.347656 470.242188 597.765625 470.628906 C 598.1875 471.015625 598.625 471.375 599.085938 471.714844 C 599.542969 472.050781 600.019531 472.363281 600.515625 472.648438 C 601.007812 472.933594 601.515625 473.191406 602.035156 473.421875 C 602.558594 473.652344 603.089844 473.851562 603.632812 474.023438 C 604.175781 474.195312 604.726562 474.335938 605.289062 474.449219 C 605.847656 474.558594 606.410156 474.640625 606.976562 474.691406 C 607.546875 474.738281 608.113281 474.757812 608.683594 474.746094 C 609.253906 474.734375 609.820312 474.691406 610.386719 474.617188 C 610.949219 474.542969 611.511719 474.4375 612.0625 474.300781 C 612.617188 474.164062 613.164062 474 613.699219 473.804688 C 614.234375 473.609375 614.757812 473.386719 615.265625 473.132812 C 615.777344 472.882812 616.273438 472.601562 616.753906 472.296875 C 617.234375 471.988281 617.699219 471.65625 618.140625 471.300781 C 618.585938 470.941406 619.011719 470.5625 619.414062 470.160156 C 619.816406 469.757812 620.195312 469.332031 620.550781 468.886719 L 669.023438 408.265625 C 674.980469 400.839844 683.929688 396.535156 693.429688 396.535156 L 759.160156 396.535156 C 753.878906 408.691406 745.039062 418.910156 731.304688 421.648438 C 731.296875 421.660156 731.285156 421.671875 731.273438 421.679688 L 727.546875 422.414062 C 705.296875 426.871094 685.675781 439.941406 672.964844 458.742188 L 619.269531 538.183594 C 612.996094 542.933594 604.535156 542.695312 598.894531 537.054688 L 526.933594 465.066406 C 526.445312 464.429688 525.914062 463.832031 525.332031 463.273438 C 524.753906 462.714844 524.136719 462.207031 523.476562 461.746094 C 522.820312 461.285156 522.128906 460.875 521.410156 460.519531 C 520.6875 460.164062 519.945312 459.867188 519.179688 459.625 C 518.410156 459.386719 517.632812 459.203125 516.835938 459.085938 C 516.042969 458.964844 515.242188 458.90625 514.4375 458.90625 C 513.636719 458.910156 512.835938 458.976562 512.042969 459.101562 C 511.25 459.226562 510.46875 459.414062 509.707031 459.660156 C 509.429688 459.742188 509.152344 459.835938 508.882812 459.933594 C 508.664062 460.011719 508.453125 460.09375 508.238281 460.179688 C 508.230469 460.1875 508.21875 460.199219 508.207031 460.210938 C 507.738281 460.410156 507.28125 460.636719 506.835938 460.882812 C 506.824219 460.890625 506.8125 460.902344 506.804688 460.914062 C 506.113281 461.292969 505.457031 461.722656 504.828125 462.203125 C 504.203125 462.683594 503.617188 463.207031 503.074219 463.777344 C 502.527344 464.34375 502.027344 464.949219 501.570312 465.59375 C 501.117188 466.238281 500.714844 466.914062 500.359375 467.621094 C 500.007812 468.324219 499.710938 469.054688 499.46875 469.804688 C 499.226562 470.554688 499.039062 471.316406 498.914062 472.097656 C 498.785156 472.875 498.71875 473.65625 498.710938 474.445312 C 498.703125 475.234375 498.753906 476.019531 498.863281 476.800781 L 498.832031 725.054688 C 498.824219 725.570312 498.84375 726.089844 498.886719 726.601562 C 498.929688 727.117188 499 727.628906 499.09375 728.136719 C 499.1875 728.648438 499.308594 729.148438 499.453125 729.644531 C 499.597656 730.140625 499.765625 730.628906 499.957031 731.109375 C 500.152344 731.589844 500.367188 732.058594 500.605469 732.515625 C 500.84375 732.976562 501.105469 733.421875 501.390625 733.851562 C 501.671875 734.285156 501.976562 734.703125 502.300781 735.105469 C 502.625 735.507812 502.96875 735.894531 503.332031 736.261719 C 503.695312 736.628906 504.078125 736.976562 504.472656 737.308594 C 504.871094 737.640625 505.285156 737.949219 505.710938 738.238281 C 506.140625 738.527344 506.582031 738.796875 507.035156 739.042969 C 507.492188 739.289062 507.957031 739.511719 508.433594 739.710938 C 508.910156 739.910156 509.398438 740.085938 509.890625 740.234375 C 510.386719 740.386719 510.886719 740.515625 511.390625 740.617188 C 511.898438 740.71875 512.410156 740.792969 512.921875 740.84375 C 513.4375 740.894531 513.953125 740.921875 514.46875 740.921875 C 514.988281 740.921875 515.503906 740.894531 516.015625 740.84375 C 516.53125 740.792969 517.042969 740.71875 517.550781 740.617188 C 518.054688 740.515625 518.554688 740.386719 519.050781 740.234375 C 519.542969 740.085938 520.03125 739.910156 520.507812 739.710938 C 520.984375 739.511719 521.449219 739.289062 521.902344 739.042969 C 522.359375 738.796875 522.800781 738.527344 523.230469 738.238281 C 523.65625 737.949219 524.070312 737.640625 524.46875 737.308594 C 524.863281 736.976562 525.246094 736.628906 525.609375 736.261719 C 525.972656 735.894531 526.316406 735.507812 526.640625 735.105469 C 526.964844 734.703125 527.269531 734.285156 527.550781 733.851562 C 527.835938 733.421875 528.097656 732.976562 528.335938 732.515625 C 528.574219 732.058594 528.789062 731.589844 528.984375 731.109375 C 529.175781 730.628906 529.34375 730.140625 529.488281 729.644531 C 529.632812 729.148438 529.753906 728.648438 529.847656 728.136719 C 529.941406 727.628906 530.011719 727.117188 530.054688 726.601562 C 530.097656 726.089844 530.117188 725.570312 530.109375 725.054688 L 530.140625 512.519531 L 576.78125 559.175781 C 594.015625 576.414062 621.992188 577.472656 640.496094 561.621094 C 641.5625 560.707031 642.488281 559.667969 643.277344 558.503906 L 698.867188 476.25 C 706.984375 464.242188 719.480469 455.929688 733.6875 453.089844 C 733.699219 453.089844 733.707031 453.089844 733.71875 453.089844 L 737.414062 452.355469 C 771.382812 445.582031 796 415.535156 796 380.890625 C 795.988281 377.914062 795.195312 375.164062 793.617188 372.640625 C 795.152344 368.300781 796 363.671875 796 358.984375 L 796 293.289062 C 796 274.15625 782.347656 255.738281 762.125 255.738281 L 689.152344 255.738281 C 668.933594 255.738281 655.25 274.15625 655.25 293.289062 L 655.25 358.984375 C 655.25 364.914062 656.683594 370.703125 659.097656 375.972656 C 653.730469 379.523438 648.703125 383.605469 644.589844 388.742188 L 607.785156 434.757812 L 524.640625 339.671875 C 512.773438 326.089844 495.597656 318.316406 477.574219 318.316406 L 330.625 318.316406 C 314.035156 318.316406 298.117188 324.902344 286.394531 336.648438 L 189.203125 433.871094 L 166.265625 395.648438 C 165.738281 394.769531 165.089844 393.988281 164.523438 393.144531 C 165.222656 392.589844 165.867188 391.980469 166.460938 391.316406 C 167.054688 390.652344 167.589844 389.941406 168.0625 389.1875 C 168.535156 388.433594 168.941406 387.644531 169.277344 386.816406 C 169.617188 385.992188 169.882812 385.148438 170.074219 384.277344 C 170.269531 383.40625 170.386719 382.527344 170.429688 381.636719 C 170.472656 380.746094 170.4375 379.859375 170.332031 378.976562 C 170.222656 378.089844 170.039062 377.222656 169.78125 376.367188 C 169.523438 375.515625 169.199219 374.691406 168.800781 373.894531 L 106.246094 248.742188 C 105.601562 247.453125 104.792969 246.273438 103.820312 245.207031 C 102.851562 244.140625 101.753906 243.226562 100.53125 242.464844 C 99.304688 241.699219 98.003906 241.117188 96.617188 240.714844 C 95.234375 240.3125 93.820312 240.105469 92.378906 240.09375 Z M 689.152344 287.027344 L 762.125 287.027344 C 762.046875 287.027344 764.722656 288.242188 764.722656 293.289062 L 764.722656 358.984375 C 764.722656 364.03125 762.046875 365.246094 762.09375 365.246094 L 689.125 365.246094 C 689.203125 365.246094 686.527344 364.03125 686.527344 358.984375 L 686.527344 293.289062 C 686.527344 288.242188 689.203125 287.027344 689.152344 287.027344 Z M 92.253906 290.722656 L 129.519531 365.246094 L 54.992188 365.246094 Z M 92.253906 290.722656 " fill-opacity="1" fill-rule="nonzero"/></g></svg>