<svg xmlns="http://www.w3.org/2000/svg" xmlns:xlink="http://www.w3.org/1999/xlink" width="1080" zoomAndPan="magnify" viewBox="0 0 810 809.999993" height="1080" preserveAspectRatio="xMidYMid meet" version="1.0"><defs><clipPath id="9462f8805e"><path d="M 27 16.15625 L 784 16.15625 L 784 793.90625 L 27 793.90625 Z M 27 16.15625 " clip-rule="nonzero"/></clipPath></defs><g clip-path="url(#9462f8805e)"><path fill="#000000" d="M 170.597656 16.164062 C 152.492188 16.164062 137.683594 30.964844 137.683594 49.023438 L 137.683594 162.214844 C 137.683594 180.3125 152.492188 195.078125 170.597656 195.078125 L 196.144531 195.078125 L 196.144531 239.796875 C 196.144531 246.460938 203.894531 250.101562 209.011719 245.878906 L 270.339844 195.078125 L 335.777344 195.078125 L 335.777344 219.023438 C 335.777344 240.183594 353.03125 257.503906 374.195312 257.503906 L 504.371094 257.503906 L 560.894531 304.394531 C 544.726562 321.949219 534.765625 345.3125 534.765625 371.007812 C 534.765625 425.296875 578.957031 469.472656 633.269531 469.472656 C 687.582031 469.472656 731.773438 425.296875 731.773438 371.007812 C 731.773438 316.714844 687.582031 272.539062 633.269531 272.539062 C 618.769531 272.539062 605.046875 275.71875 592.644531 281.375 L 592.644531 257.503906 L 625.59375 257.503906 C 646.761719 257.503906 664.011719 240.183594 664.011719 219.023438 L 664.011719 80.527344 C 664.011719 59.371094 646.761719 42.085938 625.59375 42.085938 L 408.582031 42.085938 C 405.363281 27.324219 392.144531 16.164062 376.445312 16.164062 Z M 170.597656 31.894531 L 376.445312 31.894531 C 383.34375 31.894531 387.996094 36.390625 390.75 42.085938 L 374.195312 42.085938 C 353.03125 42.085938 335.777344 59.371094 335.777344 80.527344 L 335.777344 179.34375 L 267.511719 179.34375 C 265.6875 179.34375 263.90625 179.964844 262.472656 181.164062 L 211.882812 223.054688 L 211.882812 187.210938 C 211.882812 182.871094 208.355469 179.34375 204.011719 179.34375 L 170.597656 179.34375 C 160.941406 179.34375 153.460938 171.863281 153.460938 162.214844 L 153.460938 49.023438 C 153.460938 39.414062 160.941406 31.894531 170.597656 31.894531 Z M 374.195312 57.859375 L 625.59375 57.859375 C 638.269531 57.859375 648.273438 67.816406 648.273438 80.527344 L 648.273438 219.023438 C 648.273438 231.734375 638.269531 241.734375 625.59375 241.734375 L 584.773438 241.734375 C 580.433594 241.734375 576.902344 245.257812 576.902344 249.597656 L 576.902344 290.367188 C 575.429688 291.410156 573.996094 292.496094 572.5625 293.582031 L 512.242188 243.554688 C 510.847656 242.390625 509.0625 241.734375 507.203125 241.734375 L 374.195312 241.734375 C 361.519531 241.734375 351.515625 231.734375 351.515625 219.023438 L 351.515625 80.527344 C 351.515625 78.9375 351.671875 77.390625 351.984375 75.917969 C 354.074219 65.492188 363.109375 57.859375 374.195312 57.859375 Z M 400.285156 139.3125 C 389.625 139.160156 389.625 155.238281 400.285156 155.085938 L 599.503906 155.085938 C 610.164062 155.238281 610.164062 139.160156 599.503906 139.3125 Z M 400.285156 183.683594 C 389.625 183.527344 389.625 199.609375 400.285156 199.457031 L 524.800781 199.457031 C 535.464844 199.609375 535.464844 183.527344 524.800781 183.683594 Z M 574.617188 183.683594 C 563.957031 183.527344 563.957031 199.609375 574.617188 199.457031 L 599.503906 199.457031 C 610.164062 199.609375 610.164062 183.527344 599.503906 183.683594 Z M 178.308594 272.539062 C 124 272.539062 79.804688 316.714844 79.804688 371.007812 C 79.804688 425.296875 124 469.472656 178.308594 469.472656 C 232.621094 469.472656 276.816406 425.296875 276.816406 371.007812 C 276.816406 316.714844 232.621094 272.539062 178.308594 272.539062 Z M 178.308594 288.273438 C 224.132812 288.273438 261.074219 325.242188 261.074219 371.007812 C 261.074219 416.769531 224.132812 453.699219 178.308594 453.699219 C 132.527344 453.699219 95.582031 416.769531 95.582031 371.007812 C 95.582031 325.242188 132.527344 288.273438 178.308594 288.273438 Z M 633.269531 288.273438 C 679.054688 288.273438 715.996094 325.242188 715.996094 371.007812 C 715.996094 416.769531 679.054688 453.699219 633.269531 453.699219 C 587.449219 453.699219 550.503906 416.769531 550.503906 371.007812 C 550.503906 346.980469 560.738281 325.472656 577.019531 310.359375 C 577.332031 310.167969 577.640625 309.933594 577.875 309.703125 C 581.363281 306.523438 585.082031 303.65625 589.039062 301.136719 C 589.078125 301.097656 589.152344 301.058594 589.230469 300.984375 C 601.984375 292.960938 617.027344 288.273438 633.269531 288.273438 Z M 124 480.554688 C 98.53125 480.828125 75.542969 493.808594 58.753906 513.339844 C 39.605469 535.660156 27.859375 566.621094 27.859375 598.980469 L 27.859375 786.03125 C 27.859375 790.371094 31.386719 793.898438 35.765625 793.898438 L 320.660156 793.898438 C 325 793.898438 328.527344 790.371094 328.527344 786.03125 L 328.527344 598.980469 C 328.527344 534.304688 281.582031 481.136719 222.425781 481.136719 C 222.078125 481.136719 221.726562 481.175781 221.417969 481.214844 L 178.234375 486.988281 L 135.007812 481.214844 C 131.285156 480.710938 127.644531 480.515625 124 480.554688 Z M 578.917969 480.554688 C 553.488281 480.828125 530.5 493.808594 513.714844 513.339844 C 494.527344 535.660156 482.820312 566.621094 482.820312 598.980469 L 482.820312 786.03125 C 482.820312 790.371094 486.347656 793.898438 490.6875 793.898438 L 775.582031 793.898438 C 779.960938 793.898438 783.488281 790.371094 783.488281 786.03125 L 783.488281 598.980469 C 783.488281 534.304688 736.542969 481.136719 677.386719 481.136719 C 677.035156 481.136719 676.6875 481.175781 676.339844 481.214844 L 633.152344 486.988281 L 589.96875 481.214844 C 586.246094 480.710938 582.5625 480.515625 578.917969 480.554688 Z M 124.113281 496.289062 C 127.023438 496.289062 129.96875 496.445312 132.914062 496.832031 L 177.1875 502.761719 C 177.84375 502.835938 178.582031 502.835938 179.28125 502.761719 L 222.773438 496.910156 C 272.28125 497.140625 312.789062 541.976562 312.789062 598.980469 L 312.789062 778.164062 L 43.636719 778.164062 L 43.636719 598.980469 C 43.636719 570.457031 54.179688 542.828125 70.734375 523.609375 C 85.15625 506.789062 103.722656 496.445312 124.113281 496.289062 Z M 579.035156 496.289062 C 581.945312 496.289062 584.890625 496.445312 587.875 496.832031 L 632.105469 502.761719 C 632.804688 502.835938 633.503906 502.835938 634.199219 502.761719 L 677.695312 496.910156 C 727.238281 497.101562 767.710938 541.976562 767.710938 598.980469 L 767.710938 778.164062 L 498.558594 778.164062 L 498.558594 598.980469 C 498.558594 570.457031 509.140625 542.828125 525.65625 523.609375 C 540.113281 506.789062 558.644531 496.445312 579.035156 496.289062 Z M 579.035156 496.289062 " fill-opacity="1" fill-rule="nonzero"/></g></svg>