<svg xmlns="http://www.w3.org/2000/svg" xmlns:xlink="http://www.w3.org/1999/xlink" width="1080" zoomAndPan="magnify" viewBox="0 0 810 809.999993" height="1080" preserveAspectRatio="xMidYMid meet" version="1.0"><defs><clipPath id="f9c51bf0c4"><path d="M 395 7.085938 L 807 7.085938 L 807 419 L 395 419 Z M 395 7.085938 " clip-rule="nonzero"/></clipPath><clipPath id="cdd3d785b7"><path d="M 212 683 L 313 683 L 313 802.835938 L 212 802.835938 Z M 212 683 " clip-rule="nonzero"/></clipPath><clipPath id="cfe1fdc5cb"><path d="M 371 590 L 472 590 L 472 802.835938 L 371 802.835938 Z M 371 590 " clip-rule="nonzero"/></clipPath><clipPath id="4ea7f8f0c0"><path d="M 530 484 L 632 484 L 632 802.835938 L 530 802.835938 Z M 530 484 " clip-rule="nonzero"/></clipPath></defs><g clip-path="url(#f9c51bf0c4)"><path fill="#000000" d="M 766.433594 7.085938 L 739.90625 7.085938 L 739.90625 60.136719 C 739.90625 62.101562 740.386719 63.917969 741.15625 65.601562 L 683.921875 119.023438 C 653.203125 90.789062 612.378906 73.398438 567.480469 73.398438 C 472.40625 73.398438 395.050781 150.746094 395.050781 245.8125 C 395.050781 340.878906 472.40625 418.226562 567.480469 418.226562 C 662.554688 418.226562 739.90625 340.878906 739.90625 245.8125 C 739.90625 205.175781 725.6875 167.84375 702.078125 138.332031 L 771.660156 73.398438 L 806.226562 73.398438 L 806.226562 46.875 L 766.433594 46.875 Z M 713.378906 245.8125 C 713.378906 326.25 647.925781 391.699219 567.480469 391.699219 C 487.035156 391.699219 421.578125 326.25 421.578125 245.8125 C 421.578125 165.375 487.035156 99.925781 567.480469 99.925781 C 604.738281 99.925781 638.667969 114.074219 664.492188 137.140625 L 645.058594 155.269531 C 624.167969 137.351562 597.097656 126.449219 567.480469 126.449219 C 501.664062 126.449219 448.105469 180.003906 448.105469 245.8125 C 448.105469 311.621094 501.664062 365.175781 567.480469 365.175781 C 633.292969 365.175781 686.851562 311.621094 686.851562 245.8125 C 686.851562 219.15625 677.953125 194.578125 663.125 174.699219 L 682.609375 156.515625 C 701.8125 181.222656 713.378906 212.164062 713.378906 245.8125 Z M 660.324219 245.8125 C 660.324219 297.003906 618.679688 338.648438 567.480469 338.648438 C 516.28125 338.648438 474.632812 297.003906 474.632812 245.8125 C 474.632812 194.621094 516.28125 152.976562 567.480469 152.976562 C 589.445312 152.976562 609.632812 160.679688 625.546875 173.480469 L 605.8125 191.886719 C 594.960938 184.167969 581.792969 179.5 567.480469 179.5 C 530.910156 179.5 501.160156 209.246094 501.160156 245.8125 C 501.160156 282.378906 530.910156 312.125 567.480469 312.125 C 604.046875 312.125 633.796875 282.378906 633.796875 245.8125 C 633.796875 233.148438 630.042969 221.410156 623.851562 211.34375 L 643.640625 192.867188 C 654.132812 207.910156 660.324219 226.132812 660.324219 245.8125 Z M 607.269531 245.8125 C 607.269531 267.75 589.417969 285.601562 567.480469 285.601562 C 545.542969 285.601562 527.6875 267.75 527.6875 245.8125 C 527.6875 223.875 545.542969 206.023438 567.480469 206.023438 C 574.085938 206.023438 580.226562 207.800781 585.71875 210.652344 L 558.433594 236.117188 L 576.527344 255.507812 L 603.914062 229.9375 C 606.050781 234.804688 607.269531 240.164062 607.269531 245.8125 Z M 607.269531 245.8125 " fill-opacity="1" fill-rule="nonzero"/></g><path fill="#000000" d="M 25.3125 626.710938 C 6.824219 642.558594 3.789062 670.210938 18.402344 689.707031 C 26.070312 699.933594 37.742188 706.578125 50.449219 707.972656 C 52.105469 708.15625 53.777344 708.25 55.449219 708.25 C 66.457031 708.25 77.242188 704.308594 85.652344 697.09375 L 151.691406 640.503906 C 153.03125 639.351562 154.132812 637.945312 154.925781 636.367188 L 203.21875 539.777344 L 229.90625 546.445312 L 211.136719 583.964844 C 205.914062 594.417969 205.0625 606.273438 208.765625 617.363281 C 212.453125 628.4375 220.25 637.425781 230.703125 642.652344 C 251.445312 653.023438 276.742188 645.371094 288.238281 625.226562 L 326.984375 557.429688 C 328.679688 554.457031 329.171875 550.957031 328.335938 547.628906 L 315.070312 494.578125 C 313.972656 490.175781 310.695312 486.644531 306.398438 485.214844 L 239.402344 462.878906 L 256.898438 410.386719 L 296.277344 430.070312 C 300.667969 432.257812 305.921875 431.84375 309.914062 428.996094 L 376.363281 381.542969 C 386.125 374.566406 392.304688 363.703125 393.289062 351.753906 C 394.28125 339.789062 389.984375 328.066406 381.496094 319.578125 C 367.25 305.320312 344.359375 303.691406 328.242188 315.796875 L 302.472656 335.121094 L 255.304688 297.390625 C 275.625 282.972656 288.941406 259.3125 288.941406 232.550781 C 288.941406 188.664062 253.25 152.976562 209.359375 152.976562 C 165.472656 152.976562 129.777344 188.664062 129.777344 232.550781 C 129.777344 255.269531 139.410156 275.746094 154.726562 290.253906 L 58.804688 326.222656 C 55.675781 327.402344 53.089844 329.722656 51.601562 332.707031 L 13.429688 409.046875 C 7.980469 419.949219 7.78125 432.546875 12.871094 443.621094 C 17.964844 454.683594 27.660156 462.71875 39.480469 465.679688 C 57.742188 470.226562 76.472656 461.660156 84.90625 444.789062 L 112.390625 389.816406 L 135.019531 384.167969 L 104.085938 466.621094 C 103.027344 469.457031 102.972656 472.589844 103.929688 475.464844 L 115.652344 510.636719 L 92.148438 569.417969 Z M 209.359375 179.5 C 238.621094 179.5 262.414062 203.292969 262.414062 232.550781 C 262.414062 261.808594 238.621094 285.601562 209.359375 285.601562 C 180.101562 285.601562 156.304688 261.808594 156.304688 232.550781 C 156.304688 203.292969 180.101562 179.5 209.359375 179.5 Z M 115.574219 582.308594 L 142.101562 515.996094 C 143.253906 513.078125 143.359375 509.855469 142.367188 506.871094 L 130.589844 471.539062 L 168.734375 369.84375 C 170.457031 365.226562 169.492188 360.027344 166.214844 356.355469 C 162.925781 352.667969 157.882812 351.105469 153.097656 352.308594 L 100.042969 365.574219 C 96.289062 366.515625 93.132812 369.046875 91.394531 372.507812 L 61.179688 432.933594 C 58.339844 438.609375 52.054688 441.488281 45.914062 439.949219 C 41.945312 438.953125 38.683594 436.261719 36.972656 432.535156 C 35.261719 428.808594 35.328125 424.578125 37.160156 420.917969 L 72.996094 349.234375 L 171.96875 312.125 L 231.234375 312.125 L 293.917969 362.269531 C 298.625 366.050781 305.308594 366.144531 310.164062 362.523438 L 344.144531 337.03125 C 349.785156 332.828125 357.769531 333.386719 362.730469 338.359375 C 365.738281 341.367188 367.199219 345.347656 366.839844 349.589844 C 366.496094 353.824219 364.398438 357.507812 360.9375 359.988281 L 300.984375 402.8125 L 255.082031 379.855469 C 251.644531 378.132812 247.625 378 244.070312 379.472656 C 240.515625 380.945312 237.785156 383.886719 236.566406 387.523438 L 210.039062 467.097656 C 207.714844 474.046875 211.46875 481.554688 218.417969 483.875 L 291.089844 508.089844 L 301.304688 548.914062 L 265.199219 612.097656 C 260.664062 620.027344 250.730469 623.050781 242.546875 618.953125 C 238.433594 616.898438 235.359375 613.355469 233.910156 608.992188 C 232.464844 604.628906 232.796875 599.960938 234.855469 595.851562 L 261.007812 543.542969 C 262.8125 539.949219 262.878906 535.730469 261.195312 532.070312 C 259.511719 528.421875 256.261719 525.71875 252.363281 524.75 L 199.308594 511.488281 C 193.257812 510.027344 187 512.867188 184.226562 518.421875 L 132.363281 622.121094 L 68.367188 676.976562 C 64.164062 680.582031 58.816406 682.214844 53.3125 681.632812 C 47.796875 681.035156 42.929688 678.25 39.613281 673.820312 C 33.363281 665.492188 34.652344 653.648438 42.570312 646.882812 L 111.886719 587.480469 C 113.503906 586.046875 114.777344 584.285156 115.574219 582.308594 Z M 115.574219 582.308594 " fill-opacity="1" fill-rule="nonzero"/><g clip-path="url(#cdd3d785b7)"><path fill="#000000" d="M 275.679688 802.835938 L 275.679688 736.523438 L 291.59375 757.746094 L 312.816406 741.828125 L 273.027344 688.78125 C 268.027344 682.09375 256.804688 682.09375 251.804688 688.78125 L 212.011719 741.828125 L 233.234375 757.746094 L 249.152344 736.523438 L 249.152344 802.835938 Z M 275.679688 802.835938 " fill-opacity="1" fill-rule="nonzero"/></g><g clip-path="url(#cfe1fdc5cb)"><path fill="#000000" d="M 410.96875 595.941406 L 371.175781 648.992188 L 392.398438 664.90625 L 408.316406 643.6875 L 408.316406 802.835938 L 434.84375 802.835938 L 434.84375 643.6875 L 450.757812 664.90625 L 471.980469 648.992188 L 432.191406 595.941406 C 427.191406 589.257812 415.96875 589.257812 410.96875 595.941406 Z M 410.96875 595.941406 " fill-opacity="1" fill-rule="nonzero"/></g><g clip-path="url(#4ea7f8f0c0)"><path fill="#000000" d="M 594.007812 802.835938 L 594.007812 537.585938 L 609.921875 558.808594 L 631.144531 542.890625 L 591.355469 489.84375 C 586.355469 483.15625 575.132812 483.15625 570.132812 489.84375 L 530.339844 542.890625 L 551.5625 558.808594 L 567.480469 537.585938 L 567.480469 802.835938 Z M 594.007812 802.835938 " fill-opacity="1" fill-rule="nonzero"/></g></svg>