<svg xmlns="http://www.w3.org/2000/svg" xmlns:xlink="http://www.w3.org/1999/xlink" width="1080" zoomAndPan="magnify" viewBox="0 0 810 809.999993" height="1080" preserveAspectRatio="xMidYMid meet" version="1.0"><path fill="#000000" d="M 427.996094 70.472656 L 446.332031 100.507812 C 420.566406 119.152344 407.621094 147.035156 403.886719 172.367188 C 402.898438 179.097656 408.058594 185.113281 414.863281 185.171875 L 444.554688 185.171875 C 455.707031 185.171875 464.4375 193.824219 464.4375 204.980469 L 464.4375 279.523438 C 464.4375 290.679688 455.71875 299.308594 444.554688 299.308594 L 381.003906 299.308594 C 369.898438 299.308594 361.3125 290.679688 361.3125 279.523438 L 361.3125 191.667969 C 361.3125 143.929688 388.554688 96.777344 427.996094 70.472656 Z M 425.359375 43.140625 C 371.6875 70.25 339.054688 131.902344 339.054688 191.679688 C 339.054688 220.988281 339.054688 279.535156 339.054688 279.535156 C 339.054688 302.566406 357.945312 321.578125 381.015625 321.578125 L 444.566406 321.578125 C 467.6875 321.578125 486.636719 302.636719 486.636719 279.535156 L 486.636719 204.992188 C 486.636719 181.875 467.6875 162.9375 444.566406 162.9375 L 428.421875 162.9375 C 434.015625 144.414062 446.085938 125.308594 467.132812 113.773438 C 472.726562 110.714844 474.613281 103.605469 471.300781 98.203125 L 439.832031 47.203125 C 435.59375 40.375 431.058594 40.269531 425.359375 43.140625 Z M 425.359375 43.140625 " fill-opacity="1" fill-rule="evenodd"/><path fill="#000000" d="M 248.214844 70.472656 L 266.550781 100.507812 C 240.855469 119.152344 227.839844 147.035156 224.152344 172.367188 C 223.117188 179.097656 228.335938 185.113281 235.082031 185.171875 L 264.820312 185.171875 C 275.925781 185.171875 284.652344 193.824219 284.652344 204.980469 L 284.652344 279.523438 C 284.652344 290.679688 275.9375 299.308594 264.820312 299.308594 L 201.28125 299.308594 C 190.105469 299.308594 181.519531 290.679688 181.519531 279.523438 L 181.519531 191.667969 C 181.53125 143.929688 208.832031 96.777344 248.214844 70.472656 Z M 245.566406 43.140625 C 191.941406 70.25 159.261719 131.902344 159.261719 191.679688 C 159.261719 220.988281 159.261719 279.535156 159.261719 279.535156 C 159.261719 302.566406 178.152344 321.578125 201.28125 321.578125 L 264.820312 321.578125 C 287.894531 321.578125 306.914062 302.636719 306.914062 279.535156 L 306.914062 204.992188 C 306.914062 181.875 287.894531 162.9375 264.820312 162.9375 L 248.699219 162.9375 C 254.222656 144.414062 266.363281 125.308594 287.339844 113.773438 C 292.933594 110.714844 294.816406 103.605469 291.507812 98.203125 L 260.039062 47.203125 C 255.800781 40.375 251.265625 40.269531 245.566406 43.140625 Z M 245.566406 43.140625 " fill-opacity="1" fill-rule="evenodd"/><path fill="#000000" d="M 122.527344 162.925781 C 71.296875 162.925781 29.710938 204.476562 29.710938 255.617188 L 29.710938 569.351562 C 29.710938 620.492188 71.296875 662.050781 122.527344 662.050781 L 332.613281 662.050781 L 395.550781 741.5 C 417.75 769.5 461.125 754.683594 461.125 722.808594 L 461.125 662.050781 L 686.96875 662.050781 C 738.199219 662.050781 779.667969 620.480469 779.667969 569.351562 L 779.667969 255.617188 C 779.667969 204.476562 738.199219 162.925781 686.96875 162.925781 L 523.441406 162.925781 C 508.425781 162.679688 508.425781 185.371094 523.441406 185.183594 L 686.96875 185.183594 C 726.234375 185.183594 757.398438 216.386719 757.398438 255.617188 L 757.398438 569.351562 C 757.398438 608.582031 726.234375 639.804688 686.96875 639.804688 L 450.007812 639.804688 C 443.871094 639.804688 438.855469 644.820312 438.855469 650.964844 L 438.855469 720.242188 C 438.855469 739.605469 420.082031 736.675781 412.589844 727.222656 L 346.710938 643.972656 C 344.636719 641.335938 341.375 639.816406 338.015625 639.816406 L 122.527344 639.816406 C 83.261719 639.816406 51.980469 608.605469 51.980469 569.363281 L 51.980469 255.617188 C 51.980469 216.445312 83.261719 185.183594 122.527344 185.183594 C 137.542969 185.371094 137.542969 162.679688 122.527344 162.925781 Z M 122.527344 162.925781 " fill-opacity="1" fill-rule="evenodd"/><path fill="#000000" d="M 192.320312 417.148438 L 209.207031 451.484375 C 210.867188 454.734375 213.988281 457.050781 217.675781 457.535156 L 255.222656 462.996094 L 228.535156 486.722656 C 225.636719 489.230469 224.308594 493.03125 224.847656 496.824219 L 231.480469 537.335938 L 197.546875 519.574219 C 194.308594 517.855469 190.433594 517.855469 187.242188 519.574219 L 153.3125 537.289062 L 159.824219 496.824219 C 160.449219 493.03125 159.082031 489.21875 156.257812 486.722656 L 129.570312 462.996094 L 167.117188 457.535156 C 170.753906 456.980469 173.875 454.734375 175.464844 451.484375 Z M 192.320312 390.289062 C 183.675781 390.289062 177.667969 396.625 174.417969 403.238281 L 158.082031 436.335938 L 120.796875 441.796875 C 117.050781 442.351562 113.730469 443.078125 110.371094 444.855469 C 106.921875 446.632812 103.058594 450.320312 101.90625 455.273438 C 100.726562 460.230469 102.269531 464.597656 103.976562 467.714844 C 105.765625 470.785156 107.839844 473.480469 110.5625 475.859375 L 136.871094 499.351562 L 130.839844 536.664062 C 130.171875 540.582031 129.875 544.089844 130.242188 547.714844 C 130.605469 551.390625 131.761719 555.742188 135.433594 559.167969 C 139.121094 562.664062 144.585938 563.640625 148.390625 563.148438 C 152.253906 562.722656 155.316406 561.441406 158.402344 559.78125 L 192.308594 541.996094 L 226.238281 559.78125 C 229.371094 561.441406 232.375 562.722656 236.25 563.148438 C 240.113281 563.640625 245.496094 562.664062 249.179688 559.167969 C 252.867188 555.730469 254.03125 551.378906 254.398438 547.714844 C 254.761719 544.089844 254.46875 540.59375 253.773438 536.664062 L 247.765625 499.351562 L 274.195312 475.8125 C 276.90625 473.351562 278.929688 470.773438 280.636719 467.714844 C 282.429688 464.597656 284.019531 460.230469 282.851562 455.273438 C 281.628906 450.320312 277.765625 446.632812 274.382812 444.855469 C 271.027344 443.089844 267.578125 442.351562 263.890625 441.796875 L 226.601562 436.335938 L 210.339844 403.238281 C 207.101562 396.625 201.035156 390.289062 192.320312 390.289062 Z M 192.320312 390.289062 " fill-opacity="1" fill-rule="nonzero"/><path fill="#000000" d="M 404.628906 417.148438 L 421.496094 451.484375 C 423.15625 454.734375 426.277344 457.050781 429.964844 457.535156 L 467.507812 462.996094 L 440.820312 486.722656 C 437.949219 489.230469 436.59375 493.03125 437.136719 496.824219 L 443.765625 537.335938 L 409.835938 519.574219 C 406.65625 517.855469 402.792969 517.855469 399.53125 519.574219 L 365.625 537.289062 L 372.113281 496.824219 C 372.738281 493.03125 371.371094 489.21875 368.566406 486.722656 L 341.878906 462.996094 L 379.425781 457.535156 C 383.042969 456.980469 386.164062 454.734375 387.753906 451.484375 Z M 404.628906 390.289062 C 395.984375 390.289062 389.957031 396.625 386.71875 403.238281 L 370.40625 436.335938 L 333.09375 441.796875 C 329.371094 442.351562 326.050781 443.078125 322.671875 444.855469 C 319.292969 446.632812 315.429688 450.320312 314.203125 455.273438 C 313.027344 460.230469 314.570312 464.597656 316.300781 467.714844 C 318.066406 470.785156 320.164062 473.480469 322.859375 475.859375 L 349.171875 499.351562 L 343.164062 536.664062 C 342.46875 540.582031 342.175781 544.089844 342.539062 547.714844 C 342.976562 551.390625 344.082031 555.742188 347.757812 559.167969 C 351.445312 562.664062 356.882812 563.640625 360.757812 563.148438 C 364.550781 562.722656 367.636719 561.441406 370.769531 559.78125 L 404.628906 541.996094 L 438.539062 559.78125 C 441.671875 561.441406 444.671875 562.722656 448.546875 563.148438 C 452.410156 563.640625 457.816406 562.664062 461.503906 559.167969 C 465.191406 555.730469 466.332031 551.378906 466.695312 547.714844 C 467.132812 544.089844 466.769531 540.59375 466.097656 536.664062 L 460.136719 499.351562 L 486.566406 475.8125 C 489.214844 473.351562 491.230469 470.773438 492.960938 467.714844 C 494.726562 464.597656 496.316406 460.230469 495.175781 455.273438 C 493.996094 450.320312 490.132812 446.632812 486.707031 444.855469 C 483.328125 443.089844 479.898438 442.351562 476.214844 441.796875 L 438.902344 436.335938 L 422.660156 403.238281 C 419.398438 396.625 413.320312 390.289062 404.628906 390.289062 Z M 404.628906 390.289062 " fill-opacity="1" fill-rule="nonzero"/><path fill="#000000" d="M 617.035156 417.148438 L 633.925781 451.484375 C 635.515625 454.734375 638.707031 457.050781 642.320312 457.535156 L 679.925781 462.996094 L 653.179688 486.722656 C 650.351562 489.230469 648.953125 493.03125 649.5625 496.824219 L 656.195312 537.335938 L 622.265625 519.574219 C 619.027344 517.855469 615.152344 517.855469 611.886719 519.574219 L 577.980469 537.289062 L 584.542969 496.824219 C 585.164062 493.03125 583.800781 489.21875 580.972656 486.722656 L 554.285156 462.996094 L 591.832031 457.535156 C 595.472656 456.980469 598.59375 454.734375 600.183594 451.484375 Z M 617.035156 390.289062 C 608.34375 390.289062 602.382812 396.625 599.132812 403.238281 L 582.75 436.335938 L 545.441406 441.796875 C 541.753906 442.351562 538.445312 443.078125 535.019531 444.855469 C 531.636719 446.632812 527.773438 450.320312 526.621094 455.273438 C 525.441406 460.230469 526.914062 464.597656 528.691406 467.714844 C 530.414062 470.785156 532.507812 473.480469 535.207031 475.859375 L 561.585938 499.351562 L 555.558594 536.664062 C 554.886719 540.582031 554.589844 544.089844 554.957031 547.714844 C 555.320312 551.390625 556.476562 555.742188 560.152344 559.167969 C 563.835938 562.664062 569.230469 563.640625 573.105469 563.148438 C 576.96875 562.722656 579.984375 561.441406 583.117188 559.78125 L 617.023438 541.996094 L 650.953125 559.78125 C 654.015625 561.441406 657.089844 562.722656 660.964844 563.148438 C 664.757812 563.640625 670.210938 562.664062 673.898438 559.167969 C 677.582031 555.730469 678.75 551.378906 679.113281 547.714844 C 679.480469 544.089844 679.113281 540.59375 678.488281 536.664062 L 672.484375 499.351562 L 698.910156 475.8125 C 701.621094 473.351562 703.574219 470.773438 705.355469 467.714844 C 707.074219 464.597656 708.664062 460.230469 707.519531 455.273438 C 706.34375 450.320312 702.480469 446.632812 699.101562 444.855469 C 695.671875 443.089844 692.292969 442.351562 688.558594 441.796875 L 651.25 436.335938 L 635.007812 403.238281 C 631.757812 396.625 625.679688 390.289062 617.035156 390.289062 Z M 617.035156 390.289062 " fill-opacity="1" fill-rule="nonzero"/></svg>